<?xml version="1.0" encoding="utf-8"?>
<!-- Generator: Adobe Illustrator 19.2.1, SVG Export Plug-In . SVG Version: 6.00 Build 0)  -->
<svg version="1.1" id="Layer_1" xmlns="http://www.w3.org/2000/svg" xmlns:xlink="http://www.w3.org/1999/xlink" x="0px" y="0px"
	 viewBox="0 0 201.5 81" style="enable-background:new 0 0 201.5 81;" xml:space="preserve">
<style type="text/css">
	.st0{fill:#8b0000; stroke:#8b0000;stroke-width:0.4;stroke-miterlimit:10;}
	.st1{fill:#FFFFFF;}
  .archedText{fill:#8b0000}
</style>
<g>
	<g>
		<path class="archedText" d="M45.6,59.8c0.1,0.2,0.1,0.3,0.1,0.4c-0.1,0.1-0.3,0.2-0.6,0.4c-2,1-3.5,1.9-4.5,2.7c-0.3,0.2-0.6,0.2-0.7,0
			c-0.1-0.1,0-0.3,0.3-0.6c0.6-0.5,0.9-0.9,1-1.1c0.1-0.2,0-0.5-0.2-0.9c-1.9-2.8-3.7-5.5-5.6-8.3c-0.1-0.2-0.2-0.2-0.3-0.2
			c-0.1,0.1-0.1,0.2-0.1,0.3c0,3.3,0.1,5.6,0.2,6.9c0.2,2.7,0.4,4.7,0.7,6c0.1,0.6,0.2,0.9,0.2,0.9c0,0.2,0,0.3-0.2,0.4
			c-0.1,0.1-0.1,0.1-0.2,0.2c-0.1,0.1-0.4,0-0.8-0.3c-1.5-1.1-5.3-3.3-11.9-5.8c-0.2-0.1-0.3-0.1-0.4,0c-0.1,0.1-0.1,0.2,0,0.4
			c1.3,1.9,3.1,4.4,5.4,7.5c0.6,0.8,1.4,0.9,2.5,0.3c0.4-0.2,0.7-0.3,0.9-0.1c0.1,0.2,0.2,0.3,0.1,0.4c0,0.1-0.2,0.2-0.5,0.5
			c-1.6,1.2-2.9,2.2-3.7,3c-0.3,0.3-0.5,0.3-0.7,0.1c-0.1-0.1,0-0.3,0.2-0.7c0.5-0.6,0.7-1,0.7-1.4c0-0.3-0.2-0.7-0.5-1.1
			c-2.1-2.8-4.1-5.6-6.2-8.3c-0.3-0.4-0.6-0.6-0.9-0.6c-0.3,0-0.8,0.1-1.5,0.3c-0.5,0.2-0.8,0.2-0.9,0c-0.1-0.2,0-0.4,0.3-0.6
			c1.3-0.9,2.4-1.7,3.2-2.5c0.3-0.3,0.6-0.5,0.7-0.5c0.2-0.1,0.4,0,0.6,0.1c3.9,1.7,7.7,3.5,11.4,5.5c0.1,0.1,0.2,0.1,0.3,0.1
			c0,0,0.1-0.2,0-0.4c-0.1-0.8-0.6-4.9-0.6-12.5c0-0.5,0.2-0.8,0.5-1c0.8-0.5,1.8-1.2,3.1-2.2c0.3-0.2,0.5-0.4,0.6-0.4
			c0.2,0,0.3,0,0.4,0.3c0.1,0.2-0.1,0.4-0.4,0.8c-0.9,0.9-1.2,1.5-1,1.8c2.1,3.2,4.1,6.4,6.2,9.6c0.2,0.4,0.5,0.6,0.8,0.6
			c0.2,0,0.6,0,1.1-0.2C45.2,59.6,45.5,59.6,45.6,59.8z"/>
		<path class="archedText" d="M61.2,44.9c0.7,2.1,0.4,4.3-0.7,6.4c-1.2,2.1-2.9,3.6-5.2,4.6c-2.4,1.1-4.7,1.4-6.9,0.9c-2.3-0.5-4.1-1.8-5.2-3.8
			c-1.1-2-1.1-4.2,0-6.5c1.1-2.3,3-4.1,5.7-5.2c2.7-1.2,5.3-1.4,7.7-0.7C58.9,41.1,60.4,42.7,61.2,44.9z M58.7,46.2
			c-0.8-2.1-2.1-3.6-4-4.3c-1.8-0.7-3.9-0.5-6.1,0.5c-1.8,0.8-3.1,2.1-3.7,3.7c-0.6,1.6-0.5,3.3,0.4,5c1,2.1,2.5,3.3,4.3,3.9
			c1.8,0.6,3.6,0.4,5.6-0.5c1.6-0.7,2.8-1.8,3.4-3.3C59.4,49.7,59.4,48,58.7,46.2z"/>
		<path class="archedText" d="M75,44.8c0.3,1.3,0,2.4-0.8,3.5c-0.9,1.1-2.2,1.8-4,2.3c-2.4,0.7-3.9,0.7-4.6,0c-0.4-0.4-0.9-1-1.4-1.6
			c-0.2-0.3-0.2-0.6,0-0.8c0.3-0.2,0.6-0.3,0.8-0.1c1,0.7,1.9,1.2,2.7,1.4c0.8,0.2,1.6,0.1,2.5-0.1c2.3-0.6,3.2-1.7,2.8-3.4
			c-0.2-0.7-0.6-1.2-1.2-1.5c-0.6-0.3-1.8-0.6-3.6-1c-2.3-0.4-3.9-0.7-4.7-1c-1-0.4-1.7-1.1-2-2.1c-0.3-1-0.1-2.1,0.7-3.1
			c0.8-1.1,2.1-1.8,3.8-2.3c1.2-0.3,2.4-0.5,3.6-0.5c0.9,0,1.5,0.1,1.6,0.4c0.4,0.6,0.7,1.3,1,2.2c0.1,0.3,0,0.5-0.3,0.6
			c-0.3,0.1-0.6,0.1-0.8-0.1c-0.8-0.8-1.6-1.3-2.4-1.5c-0.8-0.2-1.7-0.1-2.8,0.2c-1,0.3-1.7,0.7-2.1,1.2c-0.4,0.5-0.6,1.1-0.4,1.8
			c0.2,0.6,0.6,1.1,1.3,1.4c0.6,0.3,1.7,0.5,3.2,0.7c2.3,0.3,3.9,0.7,4.8,1.2C74.1,43,74.8,43.8,75,44.8z"/>
		<path class="archedText" d="M88.4,42.6c0.1,1.3-0.3,2.4-1.2,3.3c-1,1-2.4,1.5-4.2,1.8c-2.4,0.4-3.9,0.3-4.5-0.5c-0.4-0.5-0.7-1-1.2-1.8
			c-0.2-0.3-0.2-0.6,0.1-0.7c0.3-0.2,0.6-0.2,0.8,0c0.9,0.8,1.8,1.4,2.5,1.7c0.8,0.3,1.6,0.3,2.5,0.2c2.3-0.4,3.4-1.3,3.2-3.1
			c-0.1-0.7-0.4-1.2-1-1.6c-0.6-0.4-1.7-0.8-3.5-1.4c-2.2-0.6-3.7-1.1-4.5-1.6c-0.9-0.5-1.5-1.3-1.7-2.3c-0.2-1.1,0.1-2.1,1.1-3
			c0.9-1,2.3-1.6,4-1.9c1.2-0.2,2.4-0.2,3.6-0.1c0.9,0.1,1.4,0.3,1.6,0.6c0.3,0.6,0.5,1.4,0.7,2.3c0.1,0.3-0.1,0.5-0.3,0.6
			c-0.4,0.1-0.6,0-0.8-0.2c-0.7-0.9-1.4-1.5-2.2-1.8c-0.7-0.3-1.7-0.3-2.8-0.2c-1,0.2-1.7,0.5-2.2,1c-0.5,0.5-0.7,1.1-0.6,1.8
			c0.1,0.6,0.5,1.2,1.1,1.5c0.6,0.3,1.6,0.7,3.1,1.1c2.3,0.6,3.8,1.2,4.7,1.7C87.7,40.7,88.2,41.6,88.4,42.6z"/>
		<path class="archedText" d="M114.1,46.5c0,0.2-0.1,0.3-0.1,0.4c-0.1,0-0.2,0-0.5,0c-1.6-0.3-3.3-0.5-4.9-0.5c-0.3,0-0.5,0-0.6-0.1
			c-0.1-0.1-0.1-0.2-0.1-0.4c0-0.2,0.2-0.4,0.7-0.4c0.7,0,1.1-0.4,1.1-1c0.1-1.5,0.2-3.1,0.4-4.6c0-0.3,0-0.6-0.1-0.7
			c-0.1-0.1-0.3-0.2-0.6-0.2c-3.1-0.2-6.3-0.3-9.5-0.3c-0.4,0-0.6,0-0.7,0.1c-0.1,0.1-0.1,0.3-0.1,0.7c0,1.6,0,3.1,0.1,4.7
			c0,0.4,0.5,0.8,1.6,1c0.5,0.1,0.7,0.3,0.7,0.5c0,0.2,0,0.3-0.1,0.4c-0.1,0-0.3,0.1-0.6,0c-1.7-0.1-3.3,0-5,0.2c-0.2,0-0.4,0-0.5,0
			c-0.1,0-0.1-0.2-0.1-0.4c0-0.2,0.2-0.3,0.5-0.4c0.8-0.1,1.2-0.5,1.2-1.3c-0.1-3.7-0.2-7.5-0.4-11.2c0-0.7-0.6-1.2-1.6-1.3
			c-0.4-0.1-0.6-0.1-0.7-0.1c-0.1,0-0.1-0.1-0.1-0.2c0-0.1,0-0.2,0-0.2c0-0.2,0.3-0.2,0.8-0.2c2.4,0,4.3,0,5.8-0.1
			c0.3,0,0.4,0,0.5,0c0.1,0,0.1,0.2,0.1,0.4c0,0.1-0.2,0.3-0.6,0.3c-0.8,0.1-1.2,0.2-1.4,0.3c-0.3,0.2-0.4,0.5-0.4,1
			c0,1.3,0,2.6,0,4c0,0.5,0.3,0.8,0.9,0.8c3.1,0,6.3,0.1,9.4,0.3c0.4,0,0.6,0,0.7-0.1c0.1-0.1,0.2-0.3,0.2-0.7
			c0.1-1.3,0.2-2.7,0.3-4c0-0.4-0.1-0.7-0.3-0.9c-0.1-0.1-0.5-0.2-1.2-0.4c-0.5-0.1-0.8-0.3-0.8-0.5c0-0.2,0.1-0.3,0.2-0.4
			c0.1,0,0.3,0,0.7,0c1,0.2,2.1,0.3,3.2,0.3c0.8,0,1.6,0.1,2.4,0.1c0.3,0,0.4,0.1,0.5,0.1c0.1,0,0.1,0.2,0.1,0.4
			c0,0.2-0.2,0.3-0.6,0.3c-1,0-1.6,0.3-1.7,1c-0.4,3.8-0.8,7.7-1.1,11.5c0,0.4,0.1,0.7,0.4,0.9c0.2,0.2,0.6,0.3,1.3,0.5
			C114,46.2,114.1,46.4,114.1,46.5z"/>
		<path class="archedText" d="M135,43.3c-0.6,2.2-2.1,3.7-4.3,4.8c-2.1,1-4.4,1.3-6.8,0.8c-2.5-0.5-4.5-1.6-6-3.3c-1.5-1.7-2.2-3.8-1.9-6.1
			c0.3-2.3,1.5-4.1,3.7-5.3c2.2-1.2,4.7-1.6,7.6-1c2.9,0.6,5.1,1.9,6.6,3.9C135.4,38.9,135.7,41.1,135,43.3z M132.3,42.9
			c0.6-2.2,0.4-4.1-0.7-5.8c-1.1-1.6-2.8-2.6-5.1-3.1c-1.9-0.4-3.6-0.1-5.1,0.9c-1.4,1-2.3,2.4-2.5,4.3c-0.3,2.3,0.1,4.2,1.2,5.7
			c1.1,1.5,2.6,2.4,4.8,2.9c1.7,0.4,3.3,0.1,4.7-0.8C130.8,46.2,131.8,44.8,132.3,42.9z"/>
		<path class="archedText" d="M158.1,44.6c-0.1,0.1-0.3,0.2-0.7,0c-0.7-0.2-1.2-0.3-1.5-0.2c-0.3,0.1-0.6,0.3-0.8,0.8c-1,2-1.9,4-2.9,6.1
			c-0.9,1.9-2.2,3.2-3.8,3.7c-1.7,0.6-3.5,0.4-5.7-0.5c-4.6-1.8-6.3-4.6-5-8.7c0.7-2.2,1.4-4.5,2.2-6.7c0.2-0.7-0.1-1.3-1.1-1.8
			c-0.3-0.2-0.5-0.3-0.6-0.3c-0.1-0.1-0.1-0.2,0-0.3c0.1-0.2,0.2-0.3,0.3-0.3c0.1,0,0.3,0.1,0.7,0.2c2.4,0.9,4.3,1.5,5.6,1.9
			c0.3,0.1,0.4,0.1,0.5,0.2c0,0.1,0,0.2,0,0.4c-0.1,0.2-0.3,0.2-0.7,0.1c-0.8-0.1-1.3-0.2-1.4-0.2c-0.3,0-0.6,0.3-0.7,0.8
			c-0.7,2.1-1.5,4.3-2.2,6.4c-0.7,1.9-0.7,3.4-0.1,4.6c0.5,1.2,1.7,2.1,3.6,2.9c3.2,1.3,5.5,0.4,7-2.9c0.9-2,1.9-4.1,2.8-6.1
			c0.2-0.5,0.2-0.9,0-1.3c-0.2-0.3-0.5-0.6-1.1-1c-0.5-0.3-0.6-0.5-0.6-0.7c0.1-0.2,0.2-0.3,0.4-0.3c0.1,0,0.3,0.1,0.6,0.3
			c2.4,1.2,4.1,2,5.1,2.4c0.4,0.1,0.5,0.3,0.5,0.5C158.1,44.4,158.1,44.5,158.1,44.6z"/>
		<path class="archedText" d="M164.4,60.7c-0.7,1.1-1.8,1.7-3.1,1.8c-1.4,0.1-2.9-0.3-4.6-1.3c-2.2-1.3-3.3-2.3-3.3-3.3c0-0.6,0.1-1.3,0.2-2.1
			c0.1-0.4,0.2-0.6,0.5-0.5c0.4,0,0.6,0.2,0.7,0.6c0.2,1.2,0.5,2.2,1,2.9c0.4,0.7,1.1,1.3,1.9,1.8c2.1,1.2,3.6,1.1,4.5-0.3
			c0.4-0.6,0.4-1.2,0.2-1.9c-0.2-0.7-0.9-1.8-1.9-3.3c-1.4-1.9-2.3-3.3-2.6-4.1c-0.4-1-0.4-2,0.1-2.9c0.5-1,1.4-1.5,2.8-1.7
			c1.4-0.1,2.8,0.2,4.4,1.1c1.1,0.6,2.1,1.4,3,2.2c0.7,0.6,1,1.1,0.9,1.5c-0.1,0.7-0.4,1.4-0.8,2.2c-0.2,0.3-0.4,0.4-0.7,0.3
			c-0.3-0.2-0.5-0.4-0.5-0.7c0-1.1-0.2-2.1-0.7-2.8c-0.4-0.7-1.1-1.3-2.1-1.9c-0.9-0.5-1.7-0.7-2.4-0.7c-0.7,0.1-1.2,0.4-1.5,1
			c-0.3,0.6-0.3,1.2-0.1,1.9c0.3,0.6,0.9,1.6,1.8,2.8c1.4,1.9,2.3,3.4,2.7,4.3C165,58.8,164.9,59.9,164.4,60.7z"/>
		<path class="archedText" d="M176.2,71c-0.8,0.5-1.5,1.1-2.2,1.8c-0.1,0.1-0.3,0-0.7-0.4c-1-0.9-2.4-2.1-4.1-3.4c-1.9-1.4-3.5-2.5-5-3.4
			c-0.3-0.2-0.4-0.4-0.2-0.7c0.1-0.2,0.3-0.2,0.7,0c0.5,0.3,0.8,0.4,1,0.4c0.2,0,0.5-0.2,0.8-0.7c2.1-3,4.1-5.9,6.2-8.9
			c0.4-0.6,0.6-1,0.6-1.3c0-0.3-0.3-0.7-0.8-1.3c-0.3-0.3-0.3-0.6,0-0.7c0.1-0.1,0.2-0.1,0.3-0.1c0.1,0,0.3,0.2,0.6,0.5
			c0.5,0.4,1.8,1.4,4,3c2.2,1.6,4,3,5.6,4.2c0.5,0.4,0.8,0.6,0.7,0.7c0,0-0.1,0.1-0.1,0.1c-0.7,0.4-1.3,1.1-1.9,1.8
			c-0.1,0.2-0.3,0.2-0.6,0c-0.2-0.2-0.3-0.4-0.2-0.6c0.1-0.6,0.2-1,0.1-1.3c-0.1-0.4-0.3-0.9-0.7-1.3c-0.3-0.3-1.6-1.4-3.9-3.1
			c-0.3-0.2-0.5-0.3-0.6-0.3c-0.1,0-0.2,0.1-0.3,0.2c-1,1.3-1.9,2.6-2.9,4c-0.1,0.2-0.1,0.3,0.2,0.5c0.7,0.5,1.7,1.2,3.1,2.1
			c0.2,0.2,0.5,0.2,0.7,0.1c0.2-0.1,0.5-0.2,0.9-0.6c0.3-0.2,0.5-0.2,0.8,0.1c0.2,0.2,0.3,0.4,0.1,0.5c-0.9,0.7-1.8,1.7-2.8,3.1
			c-0.1,0.2-0.3,0.1-0.6,0c-0.2-0.1-0.3-0.4-0.1-0.6c0.3-0.5,0.5-0.9,0.5-1.2c0-0.2-0.1-0.5-0.4-0.8c-0.6-0.5-1.5-1.3-2.7-2.2
			c-0.1-0.1-0.2-0.1-0.3,0c-1,1.4-2,2.8-3,4.1c-0.4,0.6-0.3,1.2,0.4,1.9c0.2,0.2,0.8,0.7,1.9,1.6c1.7,1.4,3.2,1.7,4.6,1.1
			c0.3-0.2,0.6-0.1,0.7,0.2C176.4,70.7,176.4,70.9,176.2,71z"/>
	</g>
</g>
<g>
	<path class="st0" d="M93.1,16c0,0.1,0,0.1,0,0.2s-0.1,0.1-0.1,0.1c-0.2,0-0.3,0-0.3-0.2c-0.2-0.6-0.4-1-0.7-1.2
		c-0.4-0.3-1-0.4-2-0.4c-0.4,0-0.6,0-0.6,0.1c0,0,0,0.1,0,0.1v6.8c0,0.3,0.1,0.5,0.2,0.6s0.4,0.2,0.8,0.3c0.2,0,0.3,0.1,0.3,0.1
		c0.1,0,0.1,0.1,0.1,0.3c0,0.1-0.1,0.2-0.2,0.2c0,0-0.1,0-0.3,0c-1.2-0.1-2.2-0.1-3,0c-0.2,0-0.3,0-0.4,0c0,0-0.1-0.1-0.1-0.2
		c0-0.1,0-0.2,0.2-0.3c0.4-0.1,0.7-0.2,0.8-0.4c0.2-0.2,0.2-0.4,0.2-0.8v-6.6c0-0.1-0.1-0.2-0.2-0.2c0,0-0.2,0-0.4,0
		c-0.9,0-1.5,0.2-1.9,0.5c-0.3,0.2-0.6,0.6-0.8,1.2c-0.1,0.2-0.2,0.2-0.3,0.2c-0.2,0-0.2-0.1-0.2-0.3c0.2-0.5,0.2-1.2,0.2-2.1
		c0-0.1,0.1-0.1,0.4-0.1c1,0.1,2.1,0.1,3.3,0.1c2.3,0,3.7,0,4.4-0.1c0.3,0,0.4,0,0.4,0.1C93,14.5,93.1,15.2,93.1,16z"/>
	<path class="st0" d="M105.7,22.7c0,0.1,0,0.2,0,0.2s-0.1,0-0.2,0c-0.9-0.1-1.8-0.1-2.7-0.1c-0.2,0-0.3,0-0.3,0s-0.1-0.1-0.1-0.2
		c0-0.1,0.1-0.2,0.4-0.3c0.4-0.1,0.6-0.3,0.6-0.6V19c0-0.2,0-0.3-0.1-0.4s-0.2-0.1-0.3-0.1H98c-0.2,0-0.3,0-0.4,0.1
		s-0.1,0.2-0.1,0.4v2.7c0,0.3,0.3,0.5,0.9,0.6c0.3,0.1,0.4,0.2,0.4,0.3c0,0.1,0,0.2-0.1,0.2s-0.2,0-0.3,0c-0.9,0-1.8,0-2.7,0.1
		c-0.1,0-0.2,0-0.2,0s0-0.1,0-0.2s0.1-0.2,0.3-0.2c0.4,0,0.7-0.3,0.7-0.7v-6.6c0-0.4-0.3-0.7-0.8-0.8c-0.2,0-0.3-0.1-0.3-0.1
		s-0.1-0.1-0.1-0.1c0-0.1,0-0.1,0-0.1c0-0.1,0.2-0.1,0.4-0.1c1.2,0.1,2.1,0.1,2.8,0c0.1,0,0.2,0,0.2,0s0.1,0.1,0.1,0.2
		c0,0.1-0.1,0.2-0.3,0.2c-0.4,0.1-0.6,0.1-0.7,0.2c-0.1,0.1-0.2,0.3-0.2,0.6v2.3c0,0.3,0.2,0.5,0.5,0.5h4.8c0.2,0,0.3,0,0.3-0.1
		c0.1-0.1,0.1-0.2,0.1-0.4V15c0-0.2-0.1-0.4-0.2-0.5c-0.1-0.1-0.3-0.1-0.6-0.2c-0.3-0.1-0.4-0.1-0.4-0.2c0-0.1,0-0.2,0.1-0.2
		s0.2,0,0.4,0c0.5,0.1,1,0.1,1.6,0c0.4,0,0.8,0,1.1-0.1c0.1,0,0.2,0,0.2,0s0.1,0.1,0.1,0.2c0,0.1-0.1,0.2-0.3,0.2
		c-0.5,0.1-0.8,0.3-0.8,0.7v6.7c0,0.2,0.1,0.4,0.2,0.5c0.1,0.1,0.4,0.2,0.7,0.2C105.6,22.5,105.7,22.6,105.7,22.7z"/>
	<path class="st0" d="M115,21.1c-0.1,0.5-0.2,1.1-0.3,1.6c0,0.1-0.1,0.1-0.4,0.1c-0.7,0-1.6-0.1-2.7-0.1c-1.2,0-2.3,0-3.1,0.1
		c-0.2,0-0.3-0.1-0.3-0.2c0-0.1,0.1-0.2,0.3-0.2c0.3,0,0.4-0.1,0.5-0.2c0.1-0.1,0.1-0.3,0.1-0.6v-6.3c0-0.4,0-0.7-0.1-0.8
		s-0.3-0.2-0.6-0.3c-0.2-0.1-0.3-0.2-0.2-0.3c0-0.1,0.1-0.1,0.1-0.1c0,0,0.2,0,0.4,0c0.3,0,1.1,0.1,2.3,0.1c1.2,0,2.3,0,3.2-0.1
		c0.3,0,0.4,0,0.4,0.1c0,0,0,0,0,0.1c-0.1,0.4-0.1,1-0.1,1.5c0,0.1-0.1,0.2-0.2,0.2c-0.1,0-0.2-0.1-0.3-0.2
		c-0.1-0.3-0.2-0.5-0.3-0.6c-0.1-0.2-0.4-0.3-0.6-0.3c-0.2,0-1-0.1-2.3-0.1c-0.2,0-0.2,0-0.3,0.1c0,0,0,0.1,0,0.2v2.9
		c0,0.1,0.1,0.2,0.2,0.2c0.4,0,1,0,1.8-0.1c0.1,0,0.2-0.1,0.3-0.2c0.1-0.1,0.1-0.3,0.2-0.6c0-0.2,0.1-0.3,0.3-0.2
		c0.2,0,0.2,0.1,0.2,0.2c-0.1,0.6-0.2,1.4-0.1,2.4c0,0.1-0.1,0.2-0.2,0.2c-0.1,0-0.2-0.1-0.2-0.2c0-0.4-0.1-0.6-0.2-0.7
		s-0.2-0.2-0.4-0.2c-0.4,0-0.9-0.1-1.7-0.1c-0.1,0-0.1,0-0.1,0.1v3c0,0.4,0.2,0.7,0.7,0.8c0.1,0,0.5,0,1.3,0c1.1,0,1.8-0.4,2.1-1.2
		c0.1-0.2,0.2-0.2,0.3-0.2C114.9,20.9,115,21,115,21.1z"/>
</g>
<g>
	<path d="M188.9,44.5c0.1,0,0.3-0.1,0.4-0.2c0.1-0.1,0.1-0.1,0.1-0.2c0-0.4,0-0.9,0-1.4c-0.1-0.2-0.2-0.4-0.5-0.4
		c-0.3,0-0.5,0.3-0.6,0.5l-4.5,0.4c-0.1-0.1-0.1-0.2-0.2-0.3c-0.2-0.1-0.4,0-0.5,0c-0.3,0-0.5,0.2-0.5,0.6c0,0.3,0.1,0.5,0.4,0.6
		c0.3,0.1,0.6,0,0.8-0.2l4.5,0.1C188.5,44.3,188.7,44.5,188.9,44.5z"/>
	<path d="M199,43c-0.2,0-0.4-0.1-0.5,0c-0.1,0.1-0.2,0.2-0.3,0.3l-4.5-0.4c-0.1-0.2-0.3-0.5-0.6-0.5c-0.3,0-0.4,0.2-0.5,0.4
		c0,0.4,0,0.9,0,1.3c0,0.1,0,0.2,0.1,0.3c0.1,0.1,0.3,0.1,0.4,0.2c0.3,0,0.4-0.2,0.5-0.4l4.5-0.1c0.2,0.2,0.5,0.3,0.8,0.2
		c0.3-0.1,0.4-0.4,0.4-0.6C199.4,43.2,199.3,43,199,43z"/>
	<path d="M192.4,38.8c0.2,0,0.4,0,0.5-0.2c0.1-0.1,0.2-0.4,0.1-0.6c-0.1-0.3-0.6-0.5-0.5-0.8c0.1-0.4,0.6-0.4,0.8-0.7
		c0.1-0.2,0.1-0.4-0.1-0.6c-0.2-0.2-0.3-0.3-0.5-0.4l-0.2-0.1c0-0.8-0.1-1.7,0-2.6c0-0.3,0.1-0.6,0.5-0.8c0.3-0.2,0.6-0.2,1-0.2
		c0.6-0.1,1-0.5,1.1-1.1c0-0.3,0-0.7-0.1-0.9c-0.1-0.3-0.4-0.4-0.7-0.6l0.4-0.1l1.8-10l0.9-2.3l-1.2,0.7l-3-2.1
		c0-0.1-0.2-0.9-0.2-1.2c0-0.4-0.4-0.7-0.7-1c0,0,0.4-0.2,0.5-0.4c0.1-0.3-0.1-0.5-0.2-0.7c-0.2-0.4-0.7-0.7-1.1-0.8l-0.1-0.2
		c0.1-0.1,0.2-0.1,0.3-0.2c0.1-0.1,0.1-0.2,0.1-0.3c0.1-0.2,0-0.4-0.2-0.6c-0.2-0.2-0.3-0.3-0.4-0.6c0-0.2-0.1-0.4-0.2-0.4L191,9
		l-0.1,0c-0.2,0.1-0.2,0.3-0.2,0.4c-0.1,0.3-0.2,0.4-0.4,0.6c-0.1,0.2-0.2,0.4-0.2,0.6c0,0.1,0.1,0.2,0.1,0.3
		c0.1,0.1,0.2,0.2,0.3,0.2l-0.1,0.2c-0.5,0.1-0.9,0.4-1.1,0.8c-0.1,0.2-0.3,0.5-0.2,0.7c0,0.2,0.5,0.4,0.5,0.4
		c-0.3,0.2-0.6,0.5-0.7,1c0,0.2-0.2,1.1-0.2,1.2l-3,2.1l-1.2-0.7l0.9,2.3l1.8,10l0.4,0.1c-0.3,0.2-0.6,0.3-0.7,0.6
		c-0.1,0.3-0.2,0.6-0.1,0.9c0.1,0.6,0.6,1,1.1,1.1c0.3,0.1,0.7,0.1,0.9,0.2c0.3,0.2,0.4,0.5,0.5,0.8c0.1,0.8,0,1.7,0,2.6l-0.2,0.1
		c-0.2,0.1-0.4,0.2-0.5,0.4c-0.1,0.2-0.2,0.4-0.1,0.6c0.2,0.3,0.7,0.4,0.8,0.7c0.1,0.3-0.4,0.5-0.5,0.8c-0.1,0.2,0,0.4,0.1,0.6
		c0.1,0.1,0.4,0.2,0.5,0.2 M192.4,38.8 M189.5,38.8 M189.5,33.2c0-0.4,0.1-1.2-0.5-1.4c-0.3-0.1-0.6-0.1-0.8-0.2
		c-0.3-0.1-0.5-0.1-0.7-0.3c-0.4-0.3-0.6-0.7-0.5-1.2c0.1-0.5,0.5-0.7,0.8-1l2.5,0.3l0,3.6L189.5,33.2z M194.9,30.2
		c0.1,0.5-0.1,0.9-0.5,1.2c-0.2,0.1-0.5,0.2-0.7,0.3c-0.3,0.1-0.6,0.1-0.8,0.2c-0.5,0.2-0.4,0.9-0.5,1.4l-0.8,0l0-3.6l2.5-0.3
		C194.5,29.4,194.9,29.7,194.9,30.2z"/>
	<path d="M189.7,58.9c-0.2,0-0.4,0.1-0.5,0.4c-0.1,0.1-0.1,0.3-0.1,0.5c0,0.2,0.1,0.3,0.2,0.4v0.8c-0.3,0.1-0.3,0.5-0.3,0.7
		c-0.1,0.5-0.1,1-0.2,1.5c-0.2,1-0.3,2-0.5,3.1c-0.1,0.5-0.1,1-0.2,1.5c0,0.2-0.1,0.5-0.1,0.7c0,0.2-0.1,0.5,0,0.7
		c0,0.2,0.1,0.4,0.3,0.5c0.1,0.1,0.2,0.1,0.2,0.3c-0.1,0.2,0,1.1,0.1,1.3c0.1,0.2,0.2,0.3,0.3,0.5c0,0.2-0.1,0.3-0.2,0.4
		c-0.2,0.1-0.3,0.3-0.5,0.5c-0.3,0.3-0.5,0.6-0.6,1c0,0.2-0.1,0.5,0,0.7c0.1,0.2,0.3,0.4,0.4,0.5l-0.1,0.5l-1.5,0.1l-0.3,2.7l4.7,0
		h0.4l4.7,0l-0.3-2.7l-1.5-0.1l-0.1-0.5c0.2-0.1,0.3-0.3,0.4-0.5c0.1-0.2,0.1-0.5,0-0.7c-0.1-0.4-0.3-0.7-0.6-1
		c-0.2-0.2-0.3-0.3-0.5-0.5c-0.1-0.1-0.2-0.2-0.2-0.4c0-0.2,0.2-0.3,0.3-0.5c0.1-0.2,0.1-1.1,0.1-1.3c0-0.2,0.1-0.2,0.2-0.3
		c0.1-0.1,0.2-0.3,0.3-0.5c0-0.2,0-0.5,0-0.7c0-0.2,0-0.5-0.1-0.7c-0.1-0.5-0.1-1-0.2-1.5c-0.2-1-0.3-2-0.5-3.1
		c-0.1-0.5-0.2-1-0.2-1.5c0-0.3,0-0.6-0.3-0.7v-0.8c0.1-0.2,0.2-0.3,0.2-0.4c0-0.2,0-0.3-0.1-0.5c-0.1-0.3-0.3-0.3-0.5-0.4"/>
	<polygon class="st1" points="195.4,19.7 193.8,28.9 191.3,28.4 191.5,19 	"/>
	<polygon class="st1" points="186.1,19.7 187.8,28.9 190.2,28.4 190.5,19 	"/>
</g>
<rect x="189.4" y="35.3" width="3.3" height="24.4"/>
<g>
	<path d="M8.2,44.5c0.1,0,0.3-0.1,0.4-0.2c0.1-0.1,0.1-0.1,0.1-0.2c0-0.4,0-0.9,0-1.4c-0.1-0.2-0.2-0.4-0.5-0.4
		c-0.3,0-0.5,0.3-0.6,0.5l-4.5,0.4C3,43.2,3,43.1,2.8,43c-0.2-0.1-0.4,0-0.5,0c-0.3,0-0.5,0.2-0.5,0.6c0,0.3,0.1,0.5,0.4,0.6
		c0.3,0.1,0.6,0,0.8-0.2l4.5,0.1C7.7,44.3,7.9,44.5,8.2,44.5z"/>
	<path d="M18.2,43c-0.2,0-0.4-0.1-0.5,0c-0.1,0.1-0.2,0.2-0.3,0.3l-4.5-0.4c-0.1-0.2-0.3-0.5-0.6-0.5c-0.3,0-0.4,0.2-0.5,0.4
		c0,0.4,0,0.9,0,1.3c0,0.1,0,0.2,0.1,0.3c0.1,0.1,0.3,0.1,0.4,0.2c0.3,0,0.4-0.2,0.5-0.4l4.5-0.1c0.2,0.2,0.5,0.3,0.8,0.2
		c0.3-0.1,0.4-0.4,0.4-0.6C18.7,43.2,18.5,43,18.2,43z"/>
	<path d="M11.7,38.8c0.2,0,0.4,0,0.5-0.2c0.1-0.1,0.2-0.4,0.1-0.6c-0.1-0.3-0.6-0.5-0.5-0.8c0.1-0.4,0.6-0.4,0.8-0.7
		c0.1-0.2,0.1-0.4-0.1-0.6c-0.2-0.2-0.3-0.3-0.5-0.4l-0.2-0.1c0-0.8-0.1-1.7,0-2.6c0-0.3,0.1-0.6,0.5-0.8c0.3-0.2,0.6-0.2,1-0.2
		c0.6-0.1,1-0.5,1.1-1.1c0-0.3,0-0.7-0.1-0.9c-0.1-0.3-0.4-0.4-0.7-0.6l0.4-0.1l1.8-10l0.9-2.3l-1.2,0.7l-3-2.1
		c0-0.1-0.2-0.9-0.2-1.2c0-0.4-0.4-0.7-0.7-1c0,0,0.4-0.2,0.5-0.4c0.1-0.3-0.1-0.5-0.2-0.7c-0.2-0.4-0.7-0.7-1.1-0.8l-0.1-0.2
		c0.1-0.1,0.2-0.1,0.3-0.2c0.1-0.1,0.1-0.2,0.1-0.3c0.1-0.2,0-0.4-0.2-0.6c-0.2-0.2-0.3-0.3-0.4-0.6c0-0.2-0.1-0.4-0.2-0.4l-0.1,0
		l-0.1,0C9.9,9.1,9.9,9.3,9.9,9.4C9.8,9.7,9.7,9.8,9.5,10c-0.1,0.2-0.2,0.4-0.2,0.6c0,0.1,0.1,0.2,0.1,0.3c0.1,0.1,0.2,0.2,0.3,0.2
		l-0.1,0.2c-0.5,0.1-0.9,0.4-1.1,0.8c-0.1,0.2-0.3,0.5-0.2,0.7c0,0.2,0.5,0.4,0.5,0.4c-0.3,0.2-0.6,0.5-0.7,1c0,0.2-0.2,1.1-0.2,1.2
		l-3,2.1l-1.2-0.7l0.9,2.3l1.8,10l0.4,0.1c-0.3,0.2-0.6,0.3-0.7,0.6C6,30.1,6,30.4,6.1,30.7c0.1,0.6,0.6,1,1.1,1.1
		c0.3,0.1,0.7,0.1,0.9,0.2c0.3,0.2,0.4,0.5,0.5,0.8c0.1,0.8,0,1.7,0,2.6l-0.2,0.1c-0.2,0.1-0.4,0.2-0.5,0.4
		c-0.1,0.2-0.2,0.4-0.1,0.6c0.2,0.3,0.7,0.4,0.8,0.7c0.1,0.3-0.4,0.5-0.5,0.8c-0.1,0.2,0,0.4,0.1,0.6c0.1,0.1,0.4,0.2,0.5,0.2
		 M11.7,38.8 M8.8,38.8 M8.8,33.2c0-0.4,0.1-1.2-0.5-1.4c-0.3-0.1-0.6-0.1-0.8-0.2c-0.3-0.1-0.5-0.1-0.7-0.3
		c-0.4-0.3-0.6-0.7-0.5-1.2c0.1-0.5,0.5-0.7,0.8-1l2.5,0.3l0,3.6L8.8,33.2z M14.2,30.2c0.1,0.5-0.1,0.9-0.5,1.2
		c-0.2,0.1-0.5,0.2-0.7,0.3c-0.3,0.1-0.6,0.1-0.8,0.2c-0.5,0.2-0.4,0.9-0.5,1.4l-0.8,0l0-3.6l2.5-0.3C13.7,29.4,14.1,29.7,14.2,30.2
		z"/>
	<path d="M9,58.9c-0.2,0-0.4,0.1-0.5,0.4c-0.1,0.1-0.1,0.3-0.1,0.5c0,0.2,0.1,0.3,0.2,0.4v0.8c-0.3,0.1-0.3,0.5-0.3,0.7
		c-0.1,0.5-0.1,1-0.2,1.5c-0.2,1-0.3,2-0.5,3.1c-0.1,0.5-0.1,1-0.2,1.5c0,0.2-0.1,0.5-0.1,0.7c0,0.2-0.1,0.5,0,0.7
		c0,0.2,0.1,0.4,0.3,0.5c0.1,0.1,0.2,0.1,0.2,0.3c-0.1,0.2,0,1.1,0.1,1.3c0.1,0.2,0.2,0.3,0.3,0.5c0,0.2-0.1,0.3-0.2,0.4
		c-0.2,0.1-0.3,0.3-0.5,0.5c-0.3,0.3-0.5,0.6-0.6,1c0,0.2-0.1,0.5,0,0.7c0.1,0.2,0.3,0.4,0.4,0.5l-0.1,0.5l-1.5,0.1l-0.3,2.7l4.7,0
		h0.4l4.7,0l-0.3-2.7l-1.5-0.1l-0.1-0.5c0.2-0.1,0.3-0.3,0.4-0.5c0.1-0.2,0.1-0.5,0-0.7c-0.1-0.4-0.3-0.7-0.6-1
		c-0.2-0.2-0.3-0.3-0.5-0.5c-0.1-0.1-0.2-0.2-0.2-0.4c0-0.2,0.2-0.3,0.3-0.5c0.1-0.2,0.1-1.1,0.1-1.3c0-0.2,0.1-0.2,0.2-0.3
		c0.1-0.1,0.2-0.3,0.3-0.5c0-0.2,0-0.5,0-0.7c0-0.2,0-0.5-0.1-0.7c-0.1-0.5-0.1-1-0.2-1.5c-0.2-1-0.3-2-0.5-3.1
		c-0.1-0.5-0.2-1-0.2-1.5c0-0.3,0-0.6-0.3-0.7v-0.8c0.1-0.2,0.2-0.3,0.2-0.4c0-0.2,0-0.3-0.1-0.5c-0.1-0.3-0.3-0.3-0.5-0.4"/>
	<polygon class="st1" points="14.7,19.7 13.1,28.9 10.6,28.4 10.7,19 	"/>
	<polygon class="st1" points="5.4,19.7 7,28.9 9.5,28.4 9.7,19 	"/>
</g>
<rect x="8.6" y="35.3" width="3.3" height="24.4"/>
</svg>
