<?xml version="1.0" encoding="utf-8"?>
<!-- Generator: Adobe Illustrator 19.2.1, SVG Export Plug-In . SVG Version: 6.00 Build 0)  -->
<svg version="1.1" id="Layer_1" xmlns="http://www.w3.org/2000/svg" xmlns:xlink="http://www.w3.org/1999/xlink" x="0px" y="0px"
	 viewBox="0 0 351 126" style="enable-background:new 0 0 351 126;" xml:space="preserve">
<style type="text/css">
	.st0{fill:#8b0000;stroke:#8b0000; stroke-width:.75;stroke-miterlimit:10;}
  .archedText{fill:#8b0000;}
	.st1{fill:#000000;}
	.st2{fill:#FFFFFF;}
	.st3{fill:none;}
</style>
<g>
	<g>
		<path class="archedText" d="M84.8,85.4c0.2,0.3,0.2,0.5,0.1,0.6c-0.1,0.1-0.4,0.4-1,0.6c-3.3,1.7-5.8,3.2-7.5,4.5c-0.5,0.4-0.9,0.4-1.2-0.1
			c-0.1-0.2,0-0.6,0.5-1c1-0.9,1.5-1.5,1.7-1.8c0.2-0.4,0-0.9-0.4-1.5c-3.1-4.6-6.2-9.2-9.3-13.9c-0.2-0.3-0.4-0.4-0.6-0.3
			c-0.1,0.1-0.2,0.3-0.2,0.5c0,5.5,0.2,9.3,0.4,11.5c0.3,4.5,0.7,7.8,1.1,10c0.2,1,0.3,1.5,0.3,1.6c0,0.3-0.1,0.5-0.3,0.7
			c-0.1,0.1-0.2,0.2-0.3,0.3c-0.2,0.2-0.7,0-1.3-0.5c-2.5-1.8-8.8-5.4-19.8-9.7c-0.3-0.1-0.6-0.1-0.7,0c-0.2,0.2-0.2,0.4,0,0.7
			c2.2,3.2,5.2,7.4,9,12.6c1,1.4,2.4,1.6,4.2,0.6c0.7-0.4,1.2-0.4,1.4-0.1c0.2,0.3,0.3,0.5,0.2,0.6c-0.1,0.2-0.4,0.4-0.9,0.8
			c-2.7,2-4.8,3.7-6.1,5c-0.5,0.5-0.9,0.5-1.2,0.1c-0.2-0.2,0-0.6,0.4-1.1c0.8-0.9,1.2-1.7,1.1-2.3c0-0.5-0.3-1.1-0.9-1.8
			c-3.4-4.6-6.9-9.3-10.3-13.9c-0.5-0.6-1-0.9-1.5-1c-0.5,0-1.3,0.1-2.4,0.5c-0.8,0.3-1.3,0.3-1.5,0c-0.2-0.3,0-0.6,0.6-1
			c2.2-1.4,3.9-2.8,5.3-4.1c0.5-0.5,0.9-0.8,1.2-0.9c0.3-0.1,0.6-0.1,1,0.1c6.5,2.8,12.9,5.9,19,9.2c0.2,0.1,0.4,0.2,0.5,0.1
			c0.1-0.1,0.1-0.3,0-0.7c-0.1-1.3-0.9-8.1-1.1-20.9c0-0.8,0.3-1.3,0.8-1.7c1.3-0.8,3-2,5.2-3.7c0.5-0.4,0.8-0.6,1-0.6
			c0.3-0.1,0.5,0.1,0.7,0.4c0.2,0.3-0.1,0.7-0.7,1.3c-1.5,1.4-2.1,2.5-1.7,3.1c3.4,5.3,6.9,10.7,10.3,16c0.4,0.6,0.9,1,1.3,1.1
			c0.4,0.1,1,0,1.8-0.3C84.2,85,84.6,85,84.8,85.4z"/>
		<path class="archedText" d="M110.8,60.5c1.2,3.6,0.7,7.1-1.2,10.6c-1.9,3.5-4.8,6-8.6,7.6c-4,1.8-7.8,2.3-11.6,1.4c-3.8-0.8-6.8-2.9-8.7-6.4
			c-1.8-3.4-1.9-7,0-10.9c1.8-3.8,5.1-6.8,9.5-8.7c4.6-2,8.9-2.3,12.8-1.1C107,54.3,109.6,56.8,110.8,60.5z M106.7,62.7
			c-1.3-3.6-3.5-6-6.6-7.1c-3-1.1-6.4-0.9-10.1,0.8c-3.1,1.4-5.1,3.4-6.1,6.2c-1,2.7-0.8,5.5,0.7,8.4c1.7,3.4,4.2,5.6,7.2,6.6
			c2.9,1,6,0.7,9.4-0.8c2.7-1.2,4.6-3,5.7-5.6C107.8,68.5,107.9,65.7,106.7,62.7z"/>
		<path class="archedText" d="M133.9,60.3c0.5,2.1,0,4.1-1.4,5.8c-1.5,1.8-3.7,3-6.7,3.9c-4,1.1-6.5,1.2-7.6,0.1c-0.7-0.7-1.4-1.6-2.3-2.7
			c-0.4-0.5-0.4-0.9,0-1.3c0.5-0.4,1-0.4,1.4-0.1c1.7,1.2,3.2,1.9,4.6,2.3c1.3,0.3,2.7,0.2,4.2-0.2c3.8-1,5.4-2.9,4.7-5.7
			c-0.3-1.1-0.9-1.9-2-2.5c-1-0.5-3-1.1-6-1.6c-3.8-0.6-6.4-1.2-7.8-1.7c-1.7-0.7-2.8-1.8-3.3-3.5c-0.6-1.7-0.2-3.5,1.2-5.2
			c1.4-1.8,3.5-3.1,6.3-3.8c2-0.5,4-0.8,5.9-0.9c1.5,0,2.4,0.2,2.7,0.6c0.6,0.9,1.2,2.1,1.6,3.6c0.2,0.5,0,0.9-0.4,1.1
			c-0.6,0.2-1,0.1-1.4-0.2c-1.3-1.4-2.7-2.2-4-2.5c-1.3-0.3-2.8-0.2-4.6,0.3c-1.6,0.4-2.8,1.1-3.5,2c-0.7,0.9-0.9,1.9-0.6,3
			c0.3,1,1,1.8,2.2,2.3c1.1,0.5,2.8,0.8,5.4,1.2c3.9,0.5,6.5,1.2,8.1,2C132.4,57.3,133.5,58.6,133.9,60.3z"/>
		<path class="archedText" d="M156.1,56.7c0.2,2.2-0.5,4-2.1,5.6c-1.6,1.6-4,2.6-7.1,3.1c-4.1,0.6-6.6,0.4-7.5-0.8c-0.6-0.8-1.2-1.7-1.9-3
			c-0.3-0.6-0.3-1,0.2-1.2c0.5-0.3,1-0.3,1.4,0c1.5,1.4,2.9,2.3,4.2,2.8c1.3,0.5,2.7,0.6,4.2,0.3c3.9-0.6,5.6-2.2,5.3-5.1
			c-0.1-1.1-0.7-2-1.7-2.7c-1-0.6-2.9-1.4-5.8-2.3c-3.7-1.1-6.2-1.9-7.5-2.6c-1.6-0.9-2.5-2.1-2.9-3.8c-0.4-1.8,0.2-3.5,1.8-5.1
			c1.6-1.6,3.8-2.6,6.7-3.1c2-0.3,4-0.4,6-0.2c1.5,0.1,2.4,0.5,2.6,0.9c0.5,1,0.9,2.3,1.2,3.8c0.1,0.6-0.1,0.9-0.6,1
			c-0.6,0.1-1,0-1.3-0.4c-1.1-1.5-2.4-2.5-3.7-3c-1.2-0.5-2.8-0.5-4.6-0.3c-1.6,0.3-2.9,0.8-3.7,1.6c-0.8,0.8-1.1,1.8-0.9,2.9
			c0.2,1.1,0.8,1.9,1.9,2.5c1,0.6,2.7,1.2,5.2,1.8c3.8,1,6.3,2,7.8,2.9C154.9,53.6,155.9,55,156.1,56.7z"/>
		<path class="archedText" d="M199,63.3c0,0.3-0.1,0.5-0.2,0.6c-0.1,0.1-0.4,0.1-0.8,0c-2.7-0.5-5.4-0.8-8.2-0.9c-0.5,0-0.9-0.1-1-0.2
			c-0.1-0.1-0.2-0.3-0.2-0.6c0-0.4,0.4-0.6,1.2-0.7c1.2-0.1,1.8-0.6,1.9-1.6c0.2-2.6,0.4-5.1,0.6-7.7c0-0.6,0-0.9-0.1-1.1
			c-0.1-0.2-0.5-0.3-1-0.4c-5.2-0.4-10.5-0.6-15.8-0.5c-0.7,0-1.1,0.1-1.2,0.2c-0.2,0.1-0.2,0.5-0.2,1.1c0,2.6,0.1,5.2,0.1,7.8
			c0,0.7,0.9,1.3,2.7,1.7c0.8,0.2,1.2,0.5,1.2,0.8c0,0.3-0.1,0.5-0.2,0.6c-0.1,0.1-0.5,0.1-1,0.1c-2.8-0.1-5.5,0-8.3,0.3
			c-0.4,0.1-0.7,0-0.8,0c-0.1-0.1-0.1-0.3-0.2-0.6c0-0.3,0.3-0.5,0.9-0.6c1.4-0.2,2-0.9,2-2.2c-0.2-6.2-0.4-12.5-0.6-18.7
			c0-1.2-0.9-1.9-2.7-2.2c-0.6-0.1-1-0.2-1.1-0.2c-0.1-0.1-0.2-0.2-0.2-0.4c0-0.2,0-0.3,0-0.4c0.1-0.3,0.5-0.4,1.4-0.4
			c4,0,7.2,0,9.7-0.2c0.4,0,0.7,0,0.9,0.1c0.1,0.1,0.2,0.3,0.2,0.6c0,0.2-0.4,0.4-1.1,0.6c-1.3,0.2-2,0.4-2.3,0.5
			c-0.5,0.3-0.7,0.8-0.7,1.6c0,2.2,0.1,4.4,0.1,6.6c0,0.9,0.5,1.4,1.5,1.4c5.2,0,10.4,0.1,15.7,0.5c0.6,0,1,0,1.2-0.1
			c0.2-0.2,0.4-0.6,0.4-1.2c0.2-2.2,0.4-4.5,0.5-6.7c0.1-0.7-0.1-1.2-0.5-1.5c-0.2-0.2-0.9-0.4-1.9-0.6c-0.9-0.2-1.3-0.5-1.3-0.8
			c0-0.4,0.1-0.6,0.3-0.6c0.2-0.1,0.6-0.1,1.2,0c1.7,0.3,3.5,0.4,5.4,0.5c1.3,0.1,2.6,0.1,4,0.2c0.4,0,0.7,0.1,0.8,0.2
			c0.1,0.1,0.1,0.3,0.1,0.6c0,0.3-0.4,0.5-1.1,0.5c-1.7,0-2.7,0.6-2.8,1.7c-0.6,6.4-1.3,12.8-1.9,19.1c-0.1,0.6,0.1,1.1,0.6,1.5
			c0.4,0.3,1.1,0.6,2.1,0.9C198.8,62.8,199.1,63,199,63.3z"/>
		<path class="archedText" d="M233.9,57.9c-1.1,3.6-3.5,6.2-7.1,7.9c-3.6,1.7-7.3,2.1-11.3,1.3c-4.2-0.9-7.5-2.7-10.1-5.5c-2.6-2.9-3.7-6.3-3.2-10.2
			c0.5-3.8,2.5-6.8,6.2-8.9c3.6-2,7.9-2.6,12.6-1.6c4.8,1,8.5,3.2,11,6.5C234.4,50.6,235,54.2,233.9,57.9z M229.3,57.3
			c1-3.7,0.6-6.9-1.2-9.6c-1.8-2.6-4.7-4.4-8.6-5.2c-3.2-0.7-6.1-0.1-8.5,1.5c-2.4,1.6-3.8,4.1-4.2,7.2c-0.6,3.8,0.1,6.9,1.9,9.5
			c1.8,2.5,4.4,4,8,4.8c2.9,0.6,5.4,0.2,7.8-1.3C226.8,62.7,228.5,60.4,229.3,57.3z"/>
		<path class="archedText" d="M272.3,60c-0.1,0.2-0.5,0.2-1.2,0.1c-1.2-0.3-2.1-0.5-2.5-0.4c-0.5,0.1-1,0.6-1.4,1.4c-1.6,3.4-3.2,6.7-4.8,10.1
			c-1.5,3.2-3.7,5.3-6.4,6.2c-2.8,0.9-5.9,0.6-9.6-0.8c-7.7-3-10.6-7.6-8.4-14.5c1.2-3.7,2.4-7.4,3.6-11.1c0.4-1.2-0.2-2.2-1.8-2.9
			c-0.6-0.3-0.9-0.5-1-0.6c-0.1-0.1-0.1-0.3-0.1-0.5c0.1-0.4,0.3-0.6,0.5-0.6c0.1,0,0.5,0.1,1.1,0.3c4.1,1.5,7.2,2.5,9.4,3.2
			c0.5,0.1,0.7,0.2,0.8,0.4c0.1,0.1,0,0.3-0.1,0.7c-0.1,0.3-0.5,0.3-1.2,0.2c-1.3-0.2-2.1-0.3-2.4-0.3c-0.6,0.1-1,0.5-1.2,1.3
			c-1.2,3.6-2.5,7.1-3.7,10.7c-1.1,3.1-1.1,5.7-0.2,7.7c0.9,2,2.9,3.5,6,4.8c5.3,2.2,9.2,0.7,11.7-4.8c1.6-3.4,3.1-6.8,4.7-10.2
			c0.4-0.8,0.4-1.5,0-2.1c-0.3-0.5-0.9-1-1.8-1.6c-0.8-0.5-1.1-0.9-0.9-1.2c0.2-0.4,0.4-0.5,0.6-0.5c0.1,0,0.4,0.2,1.1,0.4
			c4.1,1.9,6.8,3.3,8.4,3.9c0.6,0.2,0.9,0.5,0.8,0.8C272.4,59.7,272.4,59.8,272.3,60z"/>
		<path class="archedText" d="M282.8,86.9c-1.2,1.8-2.9,2.8-5.2,3c-2.3,0.2-4.8-0.6-7.6-2.2c-3.7-2.1-5.5-3.8-5.5-5.4c0-1,0.1-2.1,0.3-3.5
			c0.1-0.6,0.4-0.9,0.9-0.9c0.6,0.1,1,0.4,1.1,0.9c0.4,2,0.9,3.6,1.7,4.9c0.7,1.2,1.8,2.1,3.2,2.9c3.5,2,5.9,1.9,7.5-0.6
			c0.6-1,0.7-2,0.3-3.2c-0.4-1.1-1.4-2.9-3.2-5.5c-2.3-3.2-3.8-5.4-4.4-6.8c-0.7-1.7-0.7-3.3,0.1-4.8c0.8-1.6,2.4-2.6,4.6-2.8
			c2.3-0.2,4.7,0.4,7.3,1.8c1.8,1,3.5,2.3,4.9,3.7c1.1,1.1,1.6,1.9,1.5,2.4c-0.2,1.1-0.7,2.4-1.4,3.7c-0.3,0.5-0.6,0.6-1.1,0.4
			c-0.6-0.3-0.8-0.6-0.8-1.1c0-1.9-0.4-3.5-1.1-4.7c-0.7-1.1-1.9-2.2-3.6-3.1c-1.5-0.8-2.8-1.2-4-1.1c-1.2,0.1-2,0.7-2.6,1.7
			c-0.5,1-0.5,2-0.1,3.2c0.4,1.1,1.5,2.6,3,4.7c2.4,3.2,3.8,5.6,4.4,7.2C283.8,83.7,283.7,85.5,282.8,86.9z"/>
		<path class="archedText" d="M302.6,104.1c-1.3,0.9-2.6,1.9-3.7,3c-0.2,0.2-0.6,0-1.2-0.6c-1.7-1.6-4-3.5-6.8-5.6c-3.1-2.4-5.9-4.2-8.3-5.7
			c-0.5-0.3-0.7-0.7-0.4-1.1c0.2-0.3,0.6-0.3,1.1,0c0.8,0.4,1.3,0.6,1.7,0.6c0.4,0,0.8-0.4,1.3-1.1c3.4-4.9,6.8-9.9,10.3-14.8
			c0.7-1,1-1.7,1-2.1c0-0.4-0.5-1.1-1.4-2.1c-0.5-0.5-0.5-0.9-0.1-1.2c0.2-0.2,0.4-0.2,0.6-0.1c0.2,0.1,0.5,0.3,1,0.8
			c0.8,0.7,3,2.3,6.7,5c3.6,2.7,6.7,5,9.3,7c0.9,0.7,1.3,1.1,1.1,1.2c0,0.1-0.1,0.1-0.2,0.1c-1.1,0.8-2.1,1.8-3.2,3.1
			c-0.2,0.3-0.6,0.3-0.9,0c-0.4-0.3-0.5-0.6-0.4-1c0.2-1,0.3-1.7,0.2-2.2c-0.1-0.7-0.5-1.4-1.2-2.2c-0.6-0.6-2.7-2.4-6.6-5.2
			c-0.4-0.3-0.8-0.5-1-0.4c-0.1,0-0.3,0.1-0.4,0.4c-1.6,2.2-3.2,4.4-4.8,6.6c-0.2,0.3-0.1,0.5,0.3,0.8c1.2,0.8,2.9,2,5.1,3.6
			c0.4,0.3,0.8,0.3,1.2,0.2c0.3-0.1,0.8-0.4,1.4-0.9c0.5-0.3,0.9-0.3,1.3,0.2c0.4,0.4,0.4,0.7,0.2,0.9c-1.5,1.1-3,2.8-4.7,5.1
			c-0.2,0.3-0.5,0.2-1,0c-0.4-0.2-0.5-0.6-0.2-1c0.5-0.9,0.8-1.5,0.8-1.9c0-0.4-0.2-0.8-0.7-1.3c-0.9-0.9-2.4-2.1-4.5-3.7
			c-0.2-0.2-0.4-0.2-0.5,0c-1.7,2.3-3.3,4.6-5,6.9c-0.7,1-0.5,2,0.6,3.2c0.3,0.3,1.4,1.1,3.2,2.6c2.9,2.3,5.4,2.9,7.6,1.8
			c0.5-0.3,0.9-0.2,1.2,0.3C302.9,103.6,302.9,103.9,302.6,104.1z"/>
	</g>
</g>
<g>
	<path class="st0" d="M167.1,13.6c0,0.1,0,0.2,0,0.2s-0.1,0.1-0.2,0.1c-0.2,0.1-0.4,0-0.5-0.3c-0.3-0.9-0.6-1.4-1-1.7
		c-0.5-0.4-1.5-0.6-2.8-0.6c-0.5,0-0.8,0.1-0.9,0.2c0,0,0,0.1,0,0.2v9.7c0,0.4,0.1,0.7,0.3,0.9s0.6,0.3,1.2,0.5
		c0.2,0.1,0.4,0.1,0.4,0.1c0.1,0.1,0.1,0.2,0.1,0.4c0,0.1-0.1,0.2-0.2,0.2c0,0-0.1,0-0.4,0c-1.7-0.1-3.1-0.2-4.3,0
		c-0.3,0-0.4,0-0.5,0c-0.1,0-0.1-0.1-0.1-0.2c-0.1-0.2,0.1-0.3,0.3-0.4c0.6-0.1,0.9-0.3,1.1-0.5c0.2-0.2,0.3-0.6,0.3-1.1v-9.5
		c0-0.2-0.1-0.3-0.4-0.3c0,0-0.2,0-0.6,0c-1.2,0-2.1,0.2-2.7,0.6c-0.4,0.3-0.8,0.9-1.2,1.8c-0.1,0.3-0.3,0.4-0.5,0.3
		c-0.2-0.1-0.3-0.2-0.2-0.4c0.2-0.7,0.3-1.7,0.3-3c0-0.1,0.2-0.2,0.6-0.2c1.4,0.1,3,0.1,4.7,0.1c3.2,0,5.3-0.1,6.3-0.2
		c0.4-0.1,0.6,0,0.6,0.2C167.1,11.5,167.1,12.5,167.1,13.6z"/>
	<path class="st0" d="M186.1,23.1c0,0.2,0,0.3-0.1,0.3s-0.2,0-0.4,0c-1.3-0.1-2.6-0.1-3.9-0.1c-0.3,0-0.4,0-0.5,0s-0.1-0.1-0.1-0.3
		c0-0.2,0.2-0.3,0.5-0.4c0.5-0.1,0.8-0.4,0.8-0.9v-3.8c0-0.3,0-0.5-0.1-0.6s-0.2-0.1-0.5-0.1h-6.9c-0.3,0-0.5,0-0.5,0.1
		s-0.1,0.3-0.1,0.6v3.9c0,0.4,0.4,0.7,1.2,0.9c0.4,0.1,0.5,0.2,0.5,0.4c0,0.2,0,0.3-0.1,0.3s-0.2,0.1-0.5,0c-1.3-0.1-2.6,0-3.9,0.1
		c-0.2,0-0.3,0-0.4,0s-0.1-0.1-0.1-0.3s0.1-0.3,0.4-0.3c0.6-0.1,1-0.4,1-1v-9.4c0-0.6-0.4-1-1.1-1.1c-0.3-0.1-0.4-0.1-0.5-0.1
		s-0.1-0.1-0.1-0.2c0-0.1,0-0.1,0-0.2c0-0.1,0.2-0.2,0.6-0.2c1.6,0.1,3,0.1,4,0c0.2,0,0.3,0,0.4,0s0.1,0.1,0.1,0.3
		c0,0.1-0.1,0.2-0.4,0.3c-0.5,0.1-0.8,0.2-0.9,0.3c-0.2,0.1-0.3,0.4-0.3,0.8v3.3c0,0.5,0.2,0.7,0.7,0.7h6.8c0.3,0,0.4,0,0.5-0.1
		c0.1-0.1,0.1-0.3,0.1-0.6v-3.4c0-0.4-0.1-0.6-0.3-0.7c-0.1-0.1-0.4-0.1-0.8-0.2c-0.4-0.1-0.5-0.2-0.5-0.3c0-0.2,0-0.3,0.1-0.3
		s0.2-0.1,0.5,0c0.7,0.1,1.5,0.1,2.2,0c0.5,0,1.1-0.1,1.6-0.1c0.2,0,0.3,0,0.3,0s0.1,0.1,0.1,0.3c0,0.2-0.1,0.3-0.4,0.3
		c-0.7,0.1-1.1,0.4-1.1,1v9.6c0,0.3,0.1,0.6,0.3,0.7c0.2,0.1,0.5,0.2,1,0.3C186,22.8,186.1,22.9,186.1,23.1z"/>
	<path class="st0" d="M200.4,20.9c-0.2,0.8-0.3,1.6-0.4,2.3c0,0.1-0.2,0.2-0.6,0.2c-1-0.1-2.3-0.1-3.9-0.1c-1.7,0-3.2,0-4.5,0.1
		c-0.3,0-0.4-0.1-0.4-0.3c0-0.2,0.1-0.3,0.4-0.3c0.4,0,0.6-0.1,0.8-0.2c0.1-0.1,0.2-0.4,0.2-0.8v-9c0-0.6-0.1-1-0.2-1.1
		s-0.4-0.3-0.9-0.5c-0.3-0.1-0.4-0.2-0.3-0.5c0-0.1,0.1-0.2,0.2-0.2c0.1,0,0.2,0,0.5,0c0.4,0.1,1.5,0.1,3.3,0.1c1.8,0,3.3,0,4.5-0.1
		c0.4,0,0.6,0,0.6,0.1c0,0,0,0.1,0,0.1c-0.1,0.6-0.2,1.4-0.2,2.2c0,0.2-0.1,0.3-0.3,0.3c-0.2,0-0.3-0.1-0.4-0.3
		c-0.2-0.5-0.3-0.8-0.5-0.9c-0.2-0.2-0.5-0.4-0.9-0.5c-0.3-0.1-1.4-0.1-3.3-0.1c-0.2,0-0.4,0-0.4,0.1c0,0,0,0.1,0,0.3v4.1
		c0,0.2,0.1,0.2,0.3,0.2c0.6,0,1.5-0.1,2.6-0.1c0.2,0,0.3-0.1,0.4-0.3c0.1-0.1,0.1-0.4,0.2-0.8c0.1-0.3,0.2-0.4,0.5-0.3
		c0.2,0,0.3,0.1,0.3,0.3c-0.2,0.9-0.2,2-0.2,3.5c0,0.2-0.1,0.3-0.3,0.3c-0.2,0-0.3-0.1-0.3-0.3c-0.1-0.5-0.1-0.8-0.2-1
		c-0.1-0.2-0.3-0.3-0.6-0.3c-0.5-0.1-1.3-0.1-2.4-0.1c-0.1,0-0.2,0-0.2,0.1v4.3c0,0.6,0.4,1,1.1,1.1c0.2,0,0.8,0,1.8,0
		c1.6,0,2.6-0.6,3-1.7c0.1-0.3,0.3-0.4,0.5-0.3C200.3,20.6,200.4,20.7,200.4,20.9z"/>
</g>
<g>
	<path class="st1" d="M20.7,63.3c0.2,0,0.5-0.1,0.6-0.2c0.1-0.1,0.1-0.2,0.2-0.4c0-0.7,0-1.4,0-2.2c-0.1-0.3-0.3-0.6-0.7-0.6
		c-0.4,0-0.7,0.4-0.9,0.7l-7,0.7c-0.1-0.2-0.2-0.3-0.4-0.4c-0.3-0.1-0.6,0-0.8,0c-0.5,0-0.7,0.4-0.7,0.9c0,0.4,0.2,0.8,0.6,1
		c0.5,0.2,1,0,1.3-0.4l7,0.2C20,63,20.3,63.3,20.7,63.3z"/>
	<path class="st1" d="M36.3,60.9c-0.3,0-0.6-0.1-0.8,0c-0.2,0.1-0.3,0.3-0.4,0.4l-7-0.7c-0.2-0.3-0.5-0.7-0.9-0.7
		c-0.4,0-0.6,0.3-0.7,0.6c0,0.7,0,1.4,0,2c0,0.2,0.1,0.3,0.2,0.4c0.1,0.2,0.4,0.2,0.6,0.2c0.4,0,0.7-0.3,0.9-0.6l7-0.2
		c0.3,0.3,0.8,0.5,1.3,0.4c0.4-0.1,0.6-0.6,0.6-1C37,61.3,36.8,60.9,36.3,60.9z"/>
	<path class="st1" d="M26.1,54.4c0.3,0,0.6-0.1,0.8-0.3c0.2-0.2,0.3-0.6,0.2-0.9c-0.2-0.4-0.9-0.7-0.8-1.3c0.2-0.6,1-0.6,1.3-1.1
		c0.2-0.3,0.1-0.7-0.1-0.9c-0.2-0.3-0.5-0.5-0.8-0.7l-0.3-0.1c0-1.3-0.1-2.7,0-4c0-0.5,0.2-1,0.7-1.3c0.5-0.3,1-0.2,1.5-0.4
		c0.9-0.2,1.6-0.8,1.7-1.7c0.1-0.5,0-1-0.2-1.5c-0.2-0.5-0.7-0.7-1.1-0.9l0.6-0.1l2.8-15.5l1.4-3.6l-1.8,1.2l-4.7-3.3
		c0-0.2-0.3-1.4-0.4-1.8c-0.1-0.6-0.6-1.1-1-1.5c0,0,0.6-0.4,0.7-0.7c0.1-0.4-0.1-0.8-0.3-1.2c-0.4-0.7-1-1.1-1.8-1.3l-0.1-0.3
		c0.2-0.1,0.4-0.2,0.5-0.4c0.1-0.1,0.2-0.3,0.2-0.5c0.1-0.3-0.1-0.7-0.3-0.9c-0.2-0.3-0.4-0.5-0.5-0.9c-0.1-0.2-0.1-0.5-0.4-0.6
		l-0.2,0l-0.2,0c-0.3,0.1-0.3,0.4-0.4,0.6c-0.1,0.4-0.3,0.6-0.5,0.9c-0.2,0.2-0.4,0.6-0.3,0.9c0.1,0.2,0.1,0.3,0.2,0.5
		c0.1,0.2,0.3,0.2,0.5,0.4l-0.1,0.3c-0.7,0.2-1.4,0.6-1.8,1.3c-0.2,0.3-0.4,0.8-0.3,1.2c0.1,0.3,0.7,0.7,0.7,0.7
		c-0.5,0.4-1,0.8-1.1,1.5c0,0.4-0.4,1.6-0.4,1.8l-4.7,3.3l-1.8-1.2l1.4,3.6L18,39.3l0.6,0.1c-0.4,0.3-0.9,0.5-1.1,0.9
		c-0.2,0.4-0.3,1-0.2,1.5c0.2,0.9,0.9,1.5,1.7,1.7c0.5,0.1,1,0.1,1.5,0.4c0.5,0.3,0.7,0.7,0.7,1.3c0.1,1.3,0,2.7,0,4L21,49.2
		c-0.4,0.2-0.6,0.4-0.8,0.7c-0.2,0.3-0.3,0.6-0.1,0.9c0.3,0.5,1.1,0.5,1.3,1.1c0.1,0.5-0.6,0.8-0.8,1.3c-0.1,0.3-0.1,0.7,0.2,0.9
		c0.2,0.2,0.6,0.3,0.8,0.3 M26.1,54.4 M21.6,54.4 M21.6,45.7c0-0.7,0.1-1.8-0.7-2.1c-0.4-0.1-0.9-0.2-1.3-0.3
		c-0.4-0.1-0.8-0.2-1.2-0.4c-0.6-0.4-0.9-1.1-0.8-1.9c0.1-0.7,0.7-1.2,1.3-1.5l3.9,0.5l0.1,5.6L21.6,45.7z M30,41
		c0.1,0.7-0.2,1.5-0.8,1.9c-0.4,0.2-0.8,0.3-1.2,0.4c-0.4,0.1-0.9,0.1-1.3,0.3c-0.8,0.3-0.7,1.4-0.7,2.1l-1.2-0.1l0-5.6l3.9-0.5
		C29.3,39.9,29.9,40.3,30,41z"/>
	<path class="st1" d="M21.9,85.5c-0.3,0.1-0.7,0.2-0.8,0.6c-0.1,0.2-0.1,0.5-0.1,0.7c0.1,0.3,0.2,0.4,0.3,0.7v1.2
		c-0.4,0.2-0.4,0.7-0.5,1.1c-0.1,0.8-0.2,1.5-0.3,2.3c-0.2,1.6-0.5,3.2-0.7,4.7c-0.1,0.8-0.2,1.5-0.3,2.3c-0.1,0.4-0.1,0.8-0.1,1.1
		c0,0.4-0.1,0.7,0,1.1c0.1,0.3,0.2,0.6,0.4,0.7c0.1,0.1,0.3,0.2,0.3,0.4c-0.1,0.4,0,1.7,0.1,2c0.1,0.3,0.4,0.5,0.4,0.8
		c0.1,0.3-0.1,0.5-0.3,0.6c-0.3,0.2-0.5,0.5-0.8,0.7c-0.4,0.4-0.8,0.9-0.9,1.6c-0.1,0.3-0.1,0.8,0.1,1c0.2,0.3,0.4,0.6,0.6,0.8
		l-0.1,0.8l-2.3,0.1l-0.5,4.2l7.3,0h0.6l7.3,0l-0.5-4.2l-2.3-0.1l-0.1-0.8c0.2-0.2,0.5-0.5,0.6-0.8c0.2-0.2,0.1-0.7,0.1-1
		c-0.1-0.7-0.5-1.1-0.9-1.6c-0.3-0.3-0.5-0.5-0.8-0.7c-0.2-0.2-0.4-0.3-0.3-0.6c0.1-0.3,0.3-0.5,0.4-0.8c0.1-0.3,0.2-1.7,0.1-2
		c-0.1-0.2,0.1-0.3,0.3-0.4c0.2-0.2,0.4-0.5,0.4-0.7c0.1-0.4,0-0.7,0-1.1c0-0.4-0.1-0.8-0.1-1.1c-0.1-0.8-0.2-1.5-0.3-2.3
		c-0.2-1.6-0.5-3.2-0.7-4.7c-0.1-0.8-0.3-1.5-0.3-2.3c0-0.4-0.1-1-0.5-1.1v-1.2c0.1-0.2,0.3-0.4,0.3-0.7c0-0.2,0-0.5-0.1-0.7
		c-0.1-0.4-0.5-0.5-0.8-0.6"/>
	<polygon class="st2" points="30.8,24.7 28.2,39 24.4,38.3 24.6,23.6 	"/>
	<polygon class="st2" points="16.3,24.7 18.9,39 22.7,38.3 23,23.6 	"/>
</g>
<path class="st3" d="M11.5,24.5l4.7,1c-1.4-2.1-3.4,0.5-3.4,0.5l2-2.6"/>
<rect x="21.3" y="48.9" class="st1" width="5.1" height="37.9"/>
<g>
	<path class="st1" d="M323.9,63.1c0.2,0,0.5-0.1,0.6-0.2c0.1-0.1,0.1-0.2,0.2-0.4c0-0.7,0-1.4,0-2.2c-0.1-0.3-0.3-0.6-0.7-0.6
		c-0.4,0-0.7,0.4-0.9,0.7l-7,0.7c-0.1-0.2-0.2-0.3-0.4-0.4c-0.3-0.1-0.6,0-0.8,0c-0.5,0-0.7,0.4-0.7,0.9c0,0.4,0.2,0.8,0.6,1
		c0.5,0.2,1,0,1.3-0.4l7,0.2C323.2,62.8,323.5,63.1,323.9,63.1z"/>
	<path class="st1" d="M339.5,60.7c-0.3,0-0.6-0.1-0.8,0c-0.2,0.1-0.3,0.3-0.4,0.4l-7-0.7c-0.2-0.3-0.5-0.7-0.9-0.7
		c-0.4,0-0.6,0.3-0.7,0.6c0,0.7,0,1.4,0,2c0,0.2,0.1,0.3,0.2,0.4c0.1,0.2,0.4,0.2,0.6,0.2c0.4,0,0.7-0.3,0.9-0.6l7-0.2
		c0.3,0.3,0.8,0.5,1.3,0.4c0.4-0.1,0.6-0.6,0.6-1C340.2,61.1,340,60.8,339.5,60.7z"/>
	<path class="st1" d="M329.4,54.3c0.3,0,0.6-0.1,0.8-0.3c0.2-0.2,0.3-0.6,0.2-0.9c-0.2-0.4-0.9-0.7-0.8-1.3c0.2-0.6,1-0.6,1.3-1.1
		c0.2-0.3,0.1-0.7-0.1-0.9c-0.2-0.3-0.5-0.5-0.8-0.7l-0.3-0.1c0-1.3-0.1-2.7,0-4c0-0.5,0.2-1,0.7-1.3c0.5-0.3,1-0.2,1.5-0.4
		c0.9-0.2,1.6-0.8,1.7-1.7c0.1-0.5,0-1-0.2-1.5c-0.2-0.5-0.7-0.7-1.1-0.9l0.6-0.1l2.8-15.5l1.4-3.6l-1.8,1.2l-4.7-3.3
		c0-0.2-0.3-1.4-0.4-1.8c-0.1-0.6-0.6-1.1-1-1.5c0,0,0.6-0.4,0.7-0.7c0.1-0.4-0.1-0.8-0.3-1.2c-0.4-0.7-1-1.1-1.8-1.3l-0.1-0.3
		c0.2-0.1,0.4-0.2,0.5-0.4c0.1-0.1,0.2-0.3,0.2-0.5c0.1-0.3-0.1-0.7-0.3-0.9c-0.2-0.3-0.4-0.5-0.5-0.9c-0.1-0.2-0.1-0.5-0.4-0.6
		l-0.2,0l-0.2,0c-0.3,0.1-0.3,0.4-0.4,0.6c-0.1,0.4-0.3,0.6-0.5,0.9c-0.2,0.2-0.4,0.6-0.3,0.9c0.1,0.2,0.1,0.3,0.2,0.5
		c0.1,0.2,0.3,0.2,0.5,0.4l-0.1,0.3c-0.7,0.2-1.4,0.6-1.8,1.3c-0.2,0.3-0.4,0.8-0.3,1.2c0.1,0.3,0.7,0.7,0.7,0.7
		c-0.5,0.4-1,0.8-1.1,1.5c0,0.4-0.4,1.6-0.4,1.8l-4.7,3.3l-1.8-1.2l1.4,3.6l2.8,15.5l0.6,0.1c-0.4,0.3-0.9,0.5-1.1,0.9
		c-0.2,0.4-0.3,1-0.2,1.5c0.2,0.9,0.9,1.5,1.7,1.7c0.5,0.1,1,0.1,1.5,0.4c0.5,0.3,0.7,0.7,0.7,1.3c0.1,1.3,0,2.7,0,4l-0.3,0.1
		c-0.4,0.2-0.6,0.4-0.8,0.7c-0.2,0.3-0.3,0.6-0.1,0.9c0.3,0.5,1.1,0.5,1.3,1.1c0.1,0.5-0.6,0.8-0.8,1.3c-0.1,0.3-0.1,0.7,0.2,0.9
		c0.2,0.2,0.6,0.3,0.8,0.3 M329.4,54.3 M324.8,54.3 M324.8,45.5c0-0.7,0.1-1.8-0.7-2.1c-0.4-0.1-0.9-0.2-1.3-0.3
		c-0.4-0.1-0.8-0.2-1.2-0.4c-0.6-0.4-0.9-1.1-0.8-1.9c0.1-0.7,0.7-1.2,1.3-1.5l3.9,0.5l0.1,5.6L324.8,45.5z M333.2,40.9
		c0.1,0.7-0.2,1.5-0.8,1.9c-0.4,0.2-0.8,0.3-1.2,0.4c-0.4,0.1-0.9,0.1-1.3,0.3c-0.8,0.3-0.7,1.4-0.7,2.1l-1.2-0.1l0-5.6l3.9-0.5
		C332.5,39.7,333.1,40.1,333.2,40.9z"/>
	<path class="st1" d="M325.1,85.4c-0.3,0.1-0.7,0.2-0.8,0.6c-0.1,0.2-0.1,0.5-0.1,0.7c0.1,0.3,0.2,0.4,0.3,0.7v1.2
		c-0.4,0.2-0.4,0.7-0.5,1.1c-0.1,0.8-0.2,1.5-0.3,2.3c-0.2,1.6-0.5,3.2-0.7,4.7c-0.1,0.8-0.2,1.5-0.3,2.3c-0.1,0.4-0.1,0.8-0.1,1.1
		c0,0.4-0.1,0.7,0,1.1c0.1,0.3,0.2,0.6,0.4,0.7c0.1,0.1,0.3,0.2,0.3,0.4c-0.1,0.4,0,1.7,0.1,2c0.1,0.3,0.4,0.5,0.4,0.8
		c0.1,0.3-0.1,0.5-0.3,0.6c-0.3,0.2-0.5,0.5-0.8,0.7c-0.4,0.4-0.8,0.9-0.9,1.6c-0.1,0.3-0.1,0.8,0.1,1c0.2,0.3,0.4,0.6,0.6,0.8
		l-0.1,0.8l-2.3,0.1l-0.5,4.2l7.3,0h0.6l7.3,0l-0.5-4.2l-2.3-0.1l-0.1-0.8c0.2-0.2,0.5-0.5,0.6-0.8c0.2-0.2,0.1-0.7,0.1-1
		c-0.1-0.7-0.5-1.1-0.9-1.6c-0.3-0.3-0.5-0.5-0.8-0.7c-0.2-0.2-0.4-0.3-0.3-0.6c0.1-0.3,0.3-0.5,0.4-0.8c0.1-0.3,0.2-1.7,0.1-2
		c-0.1-0.2,0.1-0.3,0.3-0.4c0.2-0.2,0.4-0.5,0.4-0.7c0.1-0.4,0-0.7,0-1.1c0-0.4-0.1-0.8-0.1-1.1c-0.1-0.8-0.2-1.5-0.3-2.3
		c-0.2-1.6-0.5-3.2-0.7-4.7c-0.1-0.8-0.3-1.5-0.3-2.3c0-0.4-0.1-1-0.5-1.1v-1.2c0.1-0.2,0.3-0.4,0.3-0.7c0-0.2,0-0.5-0.1-0.7
		c-0.1-0.4-0.5-0.5-0.8-0.6"/>
	<polygon class="st2" points="334,24.6 331.5,38.8 327.6,38.1 327.9,23.5 	"/>
	<polygon class="st2" points="319.5,24.6 322.1,38.8 325.9,38.1 326.3,23.5 	"/>
</g>
<path class="st3" d="M314.7,24.3l4.7,1c-1.4-2.1-3.4,0.5-3.4,0.5l2-2.6"/>
<rect x="324.6" y="48.7" class="st1" width="5.1" height="37.9"/>
</svg>
