<?xml version="1.0" standalone="no"?>
<!DOCTYPE svg PUBLIC "-//W3C//DTD SVG 20010904//EN"
 "http://www.w3.org/TR/2001/REC-SVG-20010904/DTD/svg10.dtd">
<svg version="1.0" xmlns="http://www.w3.org/2000/svg"
 width="16.000000pt" height="16.000000pt" viewBox="0 0 16.000000 16.000000"
 preserveAspectRatio="xMidYMid meet">
<metadata>
Created by potrace 1.11, written by Peter Selinger 2001-2013
</metadata>
<g transform="translate(0.000000,16.000000) scale(0.005000,-0.005000)"
fill="#000000" stroke="none">
<path d="M1460 2174 c-36 -7 -92 -14 -125 -15 -33 -1 -67 -6 -76 -10 -19 -9
-69 -109 -355 -706 -35 -73 -68 -133 -74 -133 -5 0 -10 4 -10 9 0 16 -352 815
-365 829 -9 10 -53 14 -169 16 -153 2 -157 2 -154 -18 2 -13 20 -30 49 -44 77
-40 82 -56 74 -250 -4 -92 -9 -205 -10 -252 -10 -287 -17 -408 -27 -433 -12
-30 -43 -50 -95 -61 -35 -8 -48 -29 -29 -48 9 -10 58 -12 199 -10 l187 3 0 24
c0 20 -9 26 -57 42 -42 14 -64 28 -80 51 -23 35 -23 45 -8 372 3 69 8 184 11
255 3 72 8 133 11 138 8 14 24 -4 47 -56 13 -29 45 -97 71 -152 121 -257 235
-524 270 -635 21 -67 27 -74 53 -65 13 4 28 25 41 58 68 180 392 857 410 857
6 0 11 -19 12 -42 0 -24 2 -77 4 -118 2 -41 6 -145 10 -230 3 -85 8 -209 11
-274 5 -135 -1 -149 -63 -161 -42 -8 -83 -25 -83 -36 0 -4 6 -14 13 -21 10
-10 59 -12 220 -10 l207 3 0 24 c0 20 -8 26 -56 40 -75 22 -81 37 -88 250 -13
352 -16 413 -22 542 -4 84 -2 138 5 151 6 11 40 32 76 47 46 20 65 33 65 46 0
30 -30 36 -100 23z"/>
<path d="M2935 2170 c-33 -3 -113 -4 -177 -3 l-118 4 0 -25 c0 -22 7 -27 58
-42 31 -9 63 -23 70 -32 8 -11 12 -68 12 -199 0 -169 -1 -183 -19 -193 -12 -6
-135 -9 -333 -8 -264 1 -316 3 -330 16 -16 13 -18 35 -18 181 0 91 3 176 6
187 6 24 34 39 88 49 42 8 65 30 48 47 -8 8 -323 15 -419 9 -20 -1 -16 -51 4
-51 30 0 100 -40 110 -63 7 -14 11 -179 10 -456 0 -427 0 -433 -21 -458 -12
-13 -37 -28 -56 -32 -29 -5 -36 -12 -38 -35 l-4 -28 54 6 c29 3 124 6 211 6
l157 0 0 24 c0 20 -8 27 -49 41 -28 9 -61 25 -75 36 l-26 20 0 199 c0 132 4
201 11 206 14 8 664 8 678 0 7 -5 11 -73 11 -209 0 -226 -4 -240 -64 -251 -40
-8 -59 -27 -50 -50 5 -14 27 -16 148 -17 77 0 170 -1 206 -2 60 -2 65 0 68 20
3 19 -5 24 -57 38 -103 29 -96 -9 -96 507 l0 450 28 24 c16 13 39 24 52 24 26
0 58 26 52 44 -5 15 -61 22 -132 16z"/>
</g>
</svg>
